<mxfile host="Electron" agent="Mozilla/5.0 (Windows NT 10.0; Win64; x64) AppleWebKit/537.36 (KHTML, like Gecko) draw.io/26.0.4 Chrome/128.0.6613.186 Electron/32.2.5 Safari/537.36" version="26.0.4">
  <diagram name="Page-1" id="ajkCKDZ3KHdWzNuvEcQ6">
    <mxGraphModel dx="2582" dy="1509" grid="1" gridSize="10" guides="1" tooltips="1" connect="1" arrows="1" fold="1" page="1" pageScale="1" pageWidth="1169" pageHeight="827" math="0" shadow="0">
      <root>
        <mxCell id="0" />
        <mxCell id="1" parent="0" />
        <mxCell id="r1ShE6sHiX4EfTQfoEpe-1" value="" style="rounded=0;whiteSpace=wrap;html=1;" vertex="1" parent="1">
          <mxGeometry x="40" y="40" width="1520" height="750" as="geometry" />
        </mxCell>
        <mxCell id="r1ShE6sHiX4EfTQfoEpe-3" value="" style="rounded=0;whiteSpace=wrap;html=1;" vertex="1" parent="1">
          <mxGeometry x="900" y="80" width="540" height="670" as="geometry" />
        </mxCell>
        <mxCell id="r1ShE6sHiX4EfTQfoEpe-4" value="" style="rounded=0;whiteSpace=wrap;html=1;" vertex="1" parent="1">
          <mxGeometry x="930" y="110" width="480" height="639" as="geometry" />
        </mxCell>
        <mxCell id="r1ShE6sHiX4EfTQfoEpe-5" value="" style="ellipse;whiteSpace=wrap;html=1;aspect=fixed;" vertex="1" parent="1">
          <mxGeometry x="950" y="398" width="30" height="30" as="geometry" />
        </mxCell>
        <mxCell id="r1ShE6sHiX4EfTQfoEpe-7" value="" style="rounded=0;whiteSpace=wrap;html=1;" vertex="1" parent="1">
          <mxGeometry x="250" y="173" width="500" height="240" as="geometry" />
        </mxCell>
        <mxCell id="r1ShE6sHiX4EfTQfoEpe-8" value="" style="rounded=0;whiteSpace=wrap;html=1;rotation=90;" vertex="1" parent="1">
          <mxGeometry x="260" y="420" width="60" height="90" as="geometry" />
        </mxCell>
        <mxCell id="r1ShE6sHiX4EfTQfoEpe-33" value="" style="group" vertex="1" connectable="0" parent="1">
          <mxGeometry x="520" y="600" width="200" height="90" as="geometry" />
        </mxCell>
        <mxCell id="r1ShE6sHiX4EfTQfoEpe-19" value="" style="rounded=0;whiteSpace=wrap;html=1;" vertex="1" parent="r1ShE6sHiX4EfTQfoEpe-33">
          <mxGeometry width="200" height="90" as="geometry" />
        </mxCell>
        <mxCell id="r1ShE6sHiX4EfTQfoEpe-20" value="" style="rounded=0;whiteSpace=wrap;html=1;" vertex="1" parent="r1ShE6sHiX4EfTQfoEpe-33">
          <mxGeometry x="12" y="65" width="20" height="9" as="geometry" />
        </mxCell>
        <mxCell id="r1ShE6sHiX4EfTQfoEpe-21" value="" style="rounded=0;whiteSpace=wrap;html=1;rotation=90;" vertex="1" parent="r1ShE6sHiX4EfTQfoEpe-33">
          <mxGeometry x="36" y="25" width="21" height="10" as="geometry" />
        </mxCell>
        <mxCell id="r1ShE6sHiX4EfTQfoEpe-22" value="" style="rounded=0;whiteSpace=wrap;html=1;" vertex="1" parent="r1ShE6sHiX4EfTQfoEpe-33">
          <mxGeometry x="60" y="65" width="20" height="9" as="geometry" />
        </mxCell>
        <mxCell id="r1ShE6sHiX4EfTQfoEpe-24" value="" style="rounded=0;whiteSpace=wrap;html=1;rotation=90;" vertex="1" parent="r1ShE6sHiX4EfTQfoEpe-33">
          <mxGeometry x="145" y="24.5" width="21" height="10" as="geometry" />
        </mxCell>
        <mxCell id="r1ShE6sHiX4EfTQfoEpe-25" value="" style="rounded=0;whiteSpace=wrap;html=1;" vertex="1" parent="r1ShE6sHiX4EfTQfoEpe-33">
          <mxGeometry x="169" y="64.5" width="20" height="9" as="geometry" />
        </mxCell>
        <mxCell id="r1ShE6sHiX4EfTQfoEpe-29" value="" style="rounded=0;whiteSpace=wrap;html=1;" vertex="1" parent="r1ShE6sHiX4EfTQfoEpe-33">
          <mxGeometry x="112" y="65" width="20" height="9" as="geometry" />
        </mxCell>
        <mxCell id="r1ShE6sHiX4EfTQfoEpe-34" value="" style="group" vertex="1" connectable="0" parent="1">
          <mxGeometry x="300" y="600" width="200" height="90" as="geometry" />
        </mxCell>
        <mxCell id="r1ShE6sHiX4EfTQfoEpe-35" value="" style="rounded=0;whiteSpace=wrap;html=1;" vertex="1" parent="r1ShE6sHiX4EfTQfoEpe-34">
          <mxGeometry width="200" height="90" as="geometry" />
        </mxCell>
        <mxCell id="r1ShE6sHiX4EfTQfoEpe-36" value="" style="rounded=0;whiteSpace=wrap;html=1;" vertex="1" parent="r1ShE6sHiX4EfTQfoEpe-34">
          <mxGeometry x="12" y="65" width="20" height="9" as="geometry" />
        </mxCell>
        <mxCell id="r1ShE6sHiX4EfTQfoEpe-37" value="" style="rounded=0;whiteSpace=wrap;html=1;rotation=90;" vertex="1" parent="r1ShE6sHiX4EfTQfoEpe-34">
          <mxGeometry x="36" y="25" width="21" height="10" as="geometry" />
        </mxCell>
        <mxCell id="r1ShE6sHiX4EfTQfoEpe-38" value="" style="rounded=0;whiteSpace=wrap;html=1;" vertex="1" parent="r1ShE6sHiX4EfTQfoEpe-34">
          <mxGeometry x="60" y="65" width="20" height="9" as="geometry" />
        </mxCell>
        <mxCell id="r1ShE6sHiX4EfTQfoEpe-39" value="" style="rounded=0;whiteSpace=wrap;html=1;rotation=90;" vertex="1" parent="r1ShE6sHiX4EfTQfoEpe-34">
          <mxGeometry x="145" y="24.5" width="21" height="10" as="geometry" />
        </mxCell>
        <mxCell id="r1ShE6sHiX4EfTQfoEpe-40" value="" style="rounded=0;whiteSpace=wrap;html=1;" vertex="1" parent="r1ShE6sHiX4EfTQfoEpe-34">
          <mxGeometry x="169" y="64.5" width="20" height="9" as="geometry" />
        </mxCell>
        <mxCell id="r1ShE6sHiX4EfTQfoEpe-41" value="" style="rounded=0;whiteSpace=wrap;html=1;" vertex="1" parent="r1ShE6sHiX4EfTQfoEpe-34">
          <mxGeometry x="112" y="65" width="20" height="9" as="geometry" />
        </mxCell>
        <mxCell id="r1ShE6sHiX4EfTQfoEpe-43" value="&lt;b&gt;&lt;font style=&quot;font-size: 36px;&quot;&gt;Door&lt;/font&gt;&lt;/b&gt;" style="text;html=1;strokeColor=none;fillColor=none;align=center;verticalAlign=middle;whiteSpace=wrap;rounded=0;fontSize=16;fontColor=#000000;" vertex="1" parent="1">
          <mxGeometry x="1100" y="180" width="140" height="100" as="geometry" />
        </mxCell>
        <mxCell id="r1ShE6sHiX4EfTQfoEpe-47" value="" style="group" vertex="1" connectable="0" parent="1">
          <mxGeometry x="430" y="100" width="150" height="50" as="geometry" />
        </mxCell>
        <mxCell id="r1ShE6sHiX4EfTQfoEpe-6" value="" style="rounded=0;whiteSpace=wrap;html=1;" vertex="1" parent="r1ShE6sHiX4EfTQfoEpe-47">
          <mxGeometry width="150" height="50" as="geometry" />
        </mxCell>
        <mxCell id="r1ShE6sHiX4EfTQfoEpe-44" value="&lt;b&gt;&lt;font style=&quot;font-size: 36px;&quot;&gt;Camera&lt;/font&gt;&lt;/b&gt;" style="text;html=1;strokeColor=none;fillColor=none;align=center;verticalAlign=middle;whiteSpace=wrap;rounded=0;fontSize=16;fontColor=#000000;" vertex="1" parent="r1ShE6sHiX4EfTQfoEpe-47">
          <mxGeometry x="13.5" y="3" width="125" height="47" as="geometry" />
        </mxCell>
        <mxCell id="r1ShE6sHiX4EfTQfoEpe-48" value="&lt;b&gt;&lt;font style=&quot;font-size: 36px;&quot;&gt;Touch Screen Monitor&lt;/font&gt;&lt;/b&gt;" style="text;html=1;strokeColor=none;fillColor=none;align=center;verticalAlign=middle;whiteSpace=wrap;rounded=0;fontSize=16;fontColor=#000000;" vertex="1" parent="1">
          <mxGeometry x="430" y="230" width="140" height="100" as="geometry" />
        </mxCell>
        <mxCell id="r1ShE6sHiX4EfTQfoEpe-49" value="&lt;b&gt;&lt;font style=&quot;font-size: 24px;&quot;&gt;Card Reader&lt;/font&gt;&lt;/b&gt;" style="text;html=1;strokeColor=none;fillColor=none;align=center;verticalAlign=middle;whiteSpace=wrap;rounded=0;fontSize=16;fontColor=#000000;" vertex="1" parent="1">
          <mxGeometry x="249" y="442" width="80" height="45" as="geometry" />
        </mxCell>
        <mxCell id="r1ShE6sHiX4EfTQfoEpe-50" value="&lt;b&gt;&lt;font style=&quot;font-size: 36px;&quot;&gt;Sockets for Smart Plugs&lt;/font&gt;&lt;/b&gt;" style="text;html=1;strokeColor=none;fillColor=none;align=center;verticalAlign=middle;whiteSpace=wrap;rounded=0;fontSize=16;fontColor=#000000;" vertex="1" parent="1">
          <mxGeometry x="290" y="700" width="450" height="40" as="geometry" />
        </mxCell>
        <mxCell id="r1ShE6sHiX4EfTQfoEpe-51" value="&lt;b&gt;&lt;font style=&quot;font-size: 36px;&quot;&gt;Plywood&lt;/font&gt;&lt;/b&gt;" style="text;html=1;strokeColor=none;fillColor=none;align=center;verticalAlign=middle;whiteSpace=wrap;rounded=0;fontSize=16;fontColor=#000000;" vertex="1" parent="1">
          <mxGeometry x="50" y="50" width="150" height="40" as="geometry" />
        </mxCell>
      </root>
    </mxGraphModel>
  </diagram>
</mxfile>
